<?xml version="1.0" standalone="no"?>
<!DOCTYPE svg PUBLIC "-//W3C//DTD SVG 20010904//EN"
 "http://www.w3.org/TR/2001/REC-SVG-20010904/DTD/svg10.dtd">
<svg version="1.0" xmlns="http://www.w3.org/2000/svg"
 width="848.000000pt" height="848.000000pt" viewBox="0 0 848.000000 848.000000"
 preserveAspectRatio="xMidYMid meet">
<metadata>
Created by potrace 1.14, written by Peter Selinger 2001-2017
</metadata>
<g transform="translate(0.000000,848.000000) scale(0.100000,-0.100000)"
fill="#000000" stroke="none">
<path d="M4010 8470 c-400 -28 -738 -93 -1090 -210 -777 -259 -1454 -729
-1962 -1364 -517 -646 -822 -1391 -915 -2236 -23 -212 -23 -628 0 -840 85
-768 337 -1437 775 -2054 132 -186 270 -346 461 -536 326 -325 671 -574 1081
-780 901 -452 1949 -565 2922 -316 1303 334 2354 1252 2872 2508 58 140 151
430 189 588 163 675 163 1349 0 2019 -108 445 -303 900 -551 1286 -305 474
-723 903 -1182 1213 -591 398 -1261 640 -1957 707 -200 19 -485 26 -643 15z
m-454 -1405 c119 -35 179 -171 141 -318 -9 -34 -39 -163 -67 -287 -28 -124
-59 -263 -70 -310 -42 -182 -110 -484 -110 -492 0 -4 470 -8 1044 -8 986 0
1045 1 1050 18 3 9 69 298 146 642 106 470 147 636 166 668 89 152 297 119
359 -57 20 -58 19 -102 -5 -197 -12 -43 -46 -189 -76 -324 -30 -135 -71 -315
-90 -400 -67 -295 -74 -325 -74 -337 0 -10 103 -13 480 -13 394 0 486 -3 508
-14 126 -65 141 -275 26 -362 l-37 -29 -538 -3 -537 -3 -11 -47 c-6 -26 -33
-148 -61 -272 -28 -124 -59 -263 -70 -310 -11 -47 -43 -186 -70 -310 -101
-451 -181 -805 -186 -822 -5 -17 30 -18 646 -18 643 0 653 0 690 -21 71 -40
111 -137 96 -231 -9 -56 -30 -92 -73 -125 l-36 -28 -710 -5 -710 -5 -176 -780
c-97 -429 -183 -791 -190 -805 -82 -154 -273 -152 -352 3 -40 78 -37 115 45
477 41 184 109 486 151 670 41 184 80 348 85 364 6 16 10 40 10 52 l0 24
-1045 0 c-575 0 -1045 -1 -1045 -3 0 -2 -16 -73 -35 -158 -20 -85 -61 -264
-91 -399 -30 -135 -70 -312 -89 -395 -19 -82 -57 -251 -84 -375 -28 -124 -61
-245 -74 -269 -12 -24 -42 -57 -65 -75 -112 -80 -269 -3 -303 150 -11 50 -10
67 10 157 99 443 283 1252 294 1297 8 30 13 58 10 63 -2 4 -227 7 -499 7 -541
0 -526 -2 -577 59 -36 43 -50 94 -45 167 3 50 10 72 33 105 59 83 30 79 642
79 l543 0 5 23 c17 75 111 494 150 667 25 113 61 273 80 355 19 83 55 242 80
355 25 113 55 238 66 279 10 41 19 81 19 88 0 11 -122 13 -659 13 -442 0 -669
4 -688 11 -70 26 -122 110 -123 194 0 65 37 144 81 176 l34 24 725 5 725 5 21
95 c12 52 33 147 48 210 42 190 124 552 171 761 24 107 47 204 51 215 19 50
59 95 107 119 59 29 67 30 133 10z"/>
<path d="M3331 5138 c-12 -57 -101 -450 -197 -875 -96 -425 -174 -779 -174
-788 0 -13 111 -15 1043 -15 l1043 0 18 78 c10 42 28 124 42 182 13 58 46 206
74 330 28 124 59 263 70 310 11 47 42 186 70 310 88 393 102 454 116 504 8 27
14 53 14 58 0 4 -472 8 -1048 8 l-1048 0 -23 -102z"/>
</g>
</svg>
